<mxfile host="app.diagrams.net" modified="2023-11-02T20:46:34.740Z" agent="Mozilla/5.0 (Windows NT 10.0; Win64; x64) AppleWebKit/537.36 (KHTML, like Gecko) Chrome/118.0.0.0 Safari/537.36 Edg/118.0.2088.76" etag="j0NGaNX0ibDv7e8fSz9D" version="22.0.8" type="device">
  <diagram name="Page-1" id="vl1Ks5q7gf3XSJqUoBMz">
    <mxGraphModel dx="927" dy="1703" grid="1" gridSize="10" guides="1" tooltips="1" connect="1" arrows="1" fold="1" page="1" pageScale="1" pageWidth="827" pageHeight="1169" math="0" shadow="0">
      <root>
        <mxCell id="0" />
        <mxCell id="1" parent="0" />
        <mxCell id="qCVTfPhcg_SB9y_SXzLi-15" style="edgeStyle=orthogonalEdgeStyle;rounded=0;orthogonalLoop=1;jettySize=auto;html=1;startArrow=classic;startFill=1;fillColor=#1ba1e2;strokeColor=#006EAF;strokeWidth=2;" parent="1" source="qCVTfPhcg_SB9y_SXzLi-1" target="qCVTfPhcg_SB9y_SXzLi-7" edge="1">
          <mxGeometry relative="1" as="geometry">
            <Array as="points">
              <mxPoint x="430" y="10" />
            </Array>
          </mxGeometry>
        </mxCell>
        <mxCell id="qCVTfPhcg_SB9y_SXzLi-1" value="RPS" style="shape=internalStorage;whiteSpace=wrap;html=1;backgroundOutline=1;fillColor=#ffcd28;strokeColor=#d79b00;gradientColor=#ffa500;fontStyle=1;rounded=0;" parent="1" vertex="1">
          <mxGeometry x="10" y="-23" width="140" height="60" as="geometry" />
        </mxCell>
        <mxCell id="qCVTfPhcg_SB9y_SXzLi-16" style="edgeStyle=orthogonalEdgeStyle;rounded=0;orthogonalLoop=1;jettySize=auto;html=1;startArrow=classic;startFill=1;fillColor=#1ba1e2;strokeColor=#006EAF;strokeWidth=2;" parent="1" source="qCVTfPhcg_SB9y_SXzLi-2" edge="1">
          <mxGeometry relative="1" as="geometry">
            <mxPoint x="440" y="130" as="targetPoint" />
            <Array as="points">
              <mxPoint x="430" y="90" />
              <mxPoint x="430" y="130" />
            </Array>
          </mxGeometry>
        </mxCell>
        <mxCell id="-AYBLgOvKdCTAZ4Xlsf5-4" style="edgeStyle=orthogonalEdgeStyle;rounded=0;orthogonalLoop=1;jettySize=auto;html=1;exitX=1;exitY=0.75;exitDx=0;exitDy=0;" edge="1" parent="1" source="qCVTfPhcg_SB9y_SXzLi-2" target="-AYBLgOvKdCTAZ4Xlsf5-1">
          <mxGeometry relative="1" as="geometry">
            <Array as="points">
              <mxPoint x="150" y="110" />
              <mxPoint x="200" y="110" />
              <mxPoint x="200" y="240" />
            </Array>
          </mxGeometry>
        </mxCell>
        <mxCell id="qCVTfPhcg_SB9y_SXzLi-2" value="Ingenium 5.4, 7.7" style="shape=internalStorage;whiteSpace=wrap;html=1;backgroundOutline=1;fillColor=#ffcd28;gradientColor=#ffa500;strokeColor=#d79b00;fontStyle=1;rounded=0;" parent="1" vertex="1">
          <mxGeometry x="10" y="60" width="140" height="60" as="geometry" />
        </mxCell>
        <mxCell id="qCVTfPhcg_SB9y_SXzLi-17" style="edgeStyle=orthogonalEdgeStyle;rounded=0;orthogonalLoop=1;jettySize=auto;html=1;exitX=1;exitY=0.5;exitDx=0;exitDy=0;startArrow=classic;startFill=1;fillColor=#1ba1e2;strokeColor=#006EAF;strokeWidth=2;" parent="1" source="qCVTfPhcg_SB9y_SXzLi-3" target="qCVTfPhcg_SB9y_SXzLi-7" edge="1">
          <mxGeometry relative="1" as="geometry">
            <mxPoint x="188" y="246" as="sourcePoint" />
            <mxPoint x="420" y="140" as="targetPoint" />
            <Array as="points">
              <mxPoint x="180" y="170" />
              <mxPoint x="180" y="90" />
              <mxPoint x="430" y="90" />
            </Array>
          </mxGeometry>
        </mxCell>
        <mxCell id="-AYBLgOvKdCTAZ4Xlsf5-2" style="edgeStyle=orthogonalEdgeStyle;rounded=0;orthogonalLoop=1;jettySize=auto;html=1;" edge="1" parent="1" source="qCVTfPhcg_SB9y_SXzLi-3" target="-AYBLgOvKdCTAZ4Xlsf5-1">
          <mxGeometry relative="1" as="geometry">
            <mxPoint x="40" y="240" as="targetPoint" />
            <Array as="points">
              <mxPoint x="70" y="220" />
            </Array>
          </mxGeometry>
        </mxCell>
        <mxCell id="qCVTfPhcg_SB9y_SXzLi-3" value="Unitrax" style="shape=internalStorage;whiteSpace=wrap;html=1;backgroundOutline=1;fillColor=#ffcd28;gradientColor=#ffa500;strokeColor=#d79b00;fontStyle=1;rounded=0;" parent="1" vertex="1">
          <mxGeometry x="10" y="140" width="140" height="60" as="geometry" />
        </mxCell>
        <mxCell id="qCVTfPhcg_SB9y_SXzLi-14" style="edgeStyle=orthogonalEdgeStyle;rounded=0;orthogonalLoop=1;jettySize=auto;html=1;fillColor=#d5e8d4;gradientColor=#97d077;strokeColor=#82b366;strokeWidth=3;" parent="1" source="qCVTfPhcg_SB9y_SXzLi-4" target="qCVTfPhcg_SB9y_SXzLi-7" edge="1">
          <mxGeometry relative="1" as="geometry">
            <Array as="points">
              <mxPoint x="220" y="460" />
              <mxPoint x="220" y="130" />
              <mxPoint x="438" y="130" />
            </Array>
          </mxGeometry>
        </mxCell>
        <mxCell id="qCVTfPhcg_SB9y_SXzLi-4" value="Quadrus" style="shape=internalStorage;whiteSpace=wrap;html=1;backgroundOutline=1;fillColor=#ffcd28;strokeColor=#d79b00;gradientColor=#ffa500;fontStyle=1;rounded=0;" parent="1" vertex="1">
          <mxGeometry x="10" y="430" width="140" height="60" as="geometry" />
        </mxCell>
        <mxCell id="-AYBLgOvKdCTAZ4Xlsf5-3" style="edgeStyle=orthogonalEdgeStyle;rounded=0;orthogonalLoop=1;jettySize=auto;html=1;" edge="1" parent="1" source="qCVTfPhcg_SB9y_SXzLi-5" target="-AYBLgOvKdCTAZ4Xlsf5-1">
          <mxGeometry relative="1" as="geometry">
            <Array as="points">
              <mxPoint x="70" y="241" />
            </Array>
          </mxGeometry>
        </mxCell>
        <mxCell id="qCVTfPhcg_SB9y_SXzLi-5" value="IB15" style="shape=internalStorage;whiteSpace=wrap;html=1;backgroundOutline=1;fillColor=#ffcd28;gradientColor=#ffa500;strokeColor=#d79b00;fontStyle=1;rounded=0;" parent="1" vertex="1">
          <mxGeometry x="10" y="290" width="140" height="60" as="geometry" />
        </mxCell>
        <mxCell id="qCVTfPhcg_SB9y_SXzLi-6" value="FM" style="shape=internalStorage;whiteSpace=wrap;html=1;backgroundOutline=1;fillColor=#ffcd28;gradientColor=#ffa500;strokeColor=#d79b00;fontStyle=1;rounded=0;" parent="1" vertex="1">
          <mxGeometry x="10" y="360" width="140" height="60" as="geometry" />
        </mxCell>
        <mxCell id="qCVTfPhcg_SB9y_SXzLi-20" style="edgeStyle=orthogonalEdgeStyle;rounded=0;orthogonalLoop=1;jettySize=auto;html=1;startArrow=classic;startFill=1;strokeWidth=1;" parent="1" edge="1">
          <mxGeometry relative="1" as="geometry">
            <mxPoint x="590" y="173.5" as="targetPoint" />
            <mxPoint x="456.5" y="173.5" as="sourcePoint" />
          </mxGeometry>
        </mxCell>
        <mxCell id="HRiIZJCh7KwCgMogS-86-52" style="edgeStyle=orthogonalEdgeStyle;rounded=0;orthogonalLoop=1;jettySize=auto;html=1;startArrow=classic;startFill=1;" parent="1" source="qCVTfPhcg_SB9y_SXzLi-7" target="qCVTfPhcg_SB9y_SXzLi-26" edge="1">
          <mxGeometry relative="1" as="geometry" />
        </mxCell>
        <mxCell id="qCVTfPhcg_SB9y_SXzLi-7" value="Microservice/API" style="outlineConnect=0;dashed=0;verticalLabelPosition=bottom;verticalAlign=top;align=center;html=1;shape=mxgraph.aws3.api_gateway;fillColor=#D9A741;gradientColor=none;fontStyle=1;rounded=0;" parent="1" vertex="1">
          <mxGeometry x="400" y="133.5" width="76.5" height="93" as="geometry" />
        </mxCell>
        <mxCell id="qCVTfPhcg_SB9y_SXzLi-19" style="edgeStyle=orthogonalEdgeStyle;rounded=0;orthogonalLoop=1;jettySize=auto;html=1;exitX=0.5;exitY=1;exitDx=0;exitDy=0;strokeWidth=1;startArrow=classic;startFill=1;" parent="1" source="qCVTfPhcg_SB9y_SXzLi-8" target="qCVTfPhcg_SB9y_SXzLi-9" edge="1">
          <mxGeometry relative="1" as="geometry">
            <Array as="points">
              <mxPoint x="640" y="339" />
            </Array>
          </mxGeometry>
        </mxCell>
        <mxCell id="jqhNluWvCPyRUkkSe82b-15" value="Get Party type by Role" style="edgeStyle=orthogonalEdgeStyle;rounded=0;orthogonalLoop=1;jettySize=auto;html=1;startArrow=classic;startFill=1;" parent="1" source="qCVTfPhcg_SB9y_SXzLi-8" target="jqhNluWvCPyRUkkSe82b-2" edge="1">
          <mxGeometry relative="1" as="geometry" />
        </mxCell>
        <mxCell id="qCVTfPhcg_SB9y_SXzLi-8" value="MDM" style="shape=internalStorage;whiteSpace=wrap;html=1;backgroundOutline=1;fillColor=#1ba1e2;strokeColor=#006EAF;fontStyle=1;fontColor=#0a0000;rounded=0;" parent="1" vertex="1">
          <mxGeometry x="590" y="150" width="100" height="60" as="geometry" />
        </mxCell>
        <mxCell id="qCVTfPhcg_SB9y_SXzLi-22" style="edgeStyle=orthogonalEdgeStyle;rounded=0;orthogonalLoop=1;jettySize=auto;html=1;fillColor=#e51400;strokeColor=#B20000;strokeWidth=2;" parent="1" edge="1">
          <mxGeometry relative="1" as="geometry">
            <mxPoint x="398" y="345" as="sourcePoint" />
            <mxPoint x="150" y="185" as="targetPoint" />
            <Array as="points">
              <mxPoint x="260" y="345" />
              <mxPoint x="260" y="185" />
            </Array>
          </mxGeometry>
        </mxCell>
        <mxCell id="qCVTfPhcg_SB9y_SXzLi-23" style="edgeStyle=orthogonalEdgeStyle;rounded=0;orthogonalLoop=1;jettySize=auto;html=1;entryX=1;entryY=0.75;entryDx=0;entryDy=0;fillColor=#e51400;strokeColor=#B20000;strokeWidth=2;" parent="1" source="qCVTfPhcg_SB9y_SXzLi-9" target="qCVTfPhcg_SB9y_SXzLi-2" edge="1">
          <mxGeometry relative="1" as="geometry">
            <Array as="points">
              <mxPoint x="260" y="345" />
              <mxPoint x="260" y="105" />
            </Array>
          </mxGeometry>
        </mxCell>
        <mxCell id="qCVTfPhcg_SB9y_SXzLi-24" style="edgeStyle=orthogonalEdgeStyle;rounded=0;orthogonalLoop=1;jettySize=auto;html=1;entryX=1;entryY=0.75;entryDx=0;entryDy=0;strokeWidth=2;fillColor=#e51400;strokeColor=#cf2f07;" parent="1" source="qCVTfPhcg_SB9y_SXzLi-9" target="qCVTfPhcg_SB9y_SXzLi-1" edge="1">
          <mxGeometry relative="1" as="geometry">
            <Array as="points">
              <mxPoint x="260" y="345" />
              <mxPoint x="260" y="22" />
            </Array>
          </mxGeometry>
        </mxCell>
        <mxCell id="jqhNluWvCPyRUkkSe82b-19" style="edgeStyle=orthogonalEdgeStyle;rounded=0;orthogonalLoop=1;jettySize=auto;html=1;strokeWidth=2;strokeColor=#FF0000;" parent="1" source="qCVTfPhcg_SB9y_SXzLi-9" target="jqhNluWvCPyRUkkSe82b-9" edge="1">
          <mxGeometry relative="1" as="geometry">
            <Array as="points">
              <mxPoint x="414" y="430" />
              <mxPoint x="1357" y="430" />
            </Array>
          </mxGeometry>
        </mxCell>
        <mxCell id="HRiIZJCh7KwCgMogS-86-5" value="" style="edgeStyle=orthogonalEdgeStyle;rounded=0;orthogonalLoop=1;jettySize=auto;html=1;strokeWidth=2;strokeColor=#d90808;" parent="1" source="qCVTfPhcg_SB9y_SXzLi-9" target="qCVTfPhcg_SB9y_SXzLi-7" edge="1">
          <mxGeometry relative="1" as="geometry" />
        </mxCell>
        <mxCell id="qCVTfPhcg_SB9y_SXzLi-9" value="Kafka Event Streaming" style="sketch=0;points=[[0,0,0],[0.25,0,0],[0.5,0,0],[0.75,0,0],[1,0,0],[0,1,0],[0.25,1,0],[0.5,1,0],[0.75,1,0],[1,1,0],[0,0.25,0],[0,0.5,0],[0,0.75,0],[1,0.25,0],[1,0.5,0],[1,0.75,0]];outlineConnect=0;fontColor=#232F3E;fillColor=#8C4FFF;strokeColor=#ffffff;dashed=0;verticalLabelPosition=bottom;verticalAlign=top;align=center;html=1;fontSize=12;fontStyle=1;aspect=fixed;shape=mxgraph.aws4.resourceIcon;resIcon=mxgraph.aws4.managed_streaming_for_kafka;rounded=0;" parent="1" vertex="1">
          <mxGeometry x="398.5" y="306" width="78" height="78" as="geometry" />
        </mxCell>
        <mxCell id="qCVTfPhcg_SB9y_SXzLi-11" style="edgeStyle=orthogonalEdgeStyle;rounded=0;orthogonalLoop=1;jettySize=auto;html=1;entryX=0.426;entryY=0.128;entryDx=0;entryDy=0;entryPerimeter=0;startArrow=none;startFill=0;strokeWidth=2;fillColor=#60a917;strokeColor=#2D7600;" parent="1" edge="1">
          <mxGeometry relative="1" as="geometry">
            <mxPoint x="430" y="226.5" as="sourcePoint" />
            <mxPoint x="430.22800000000007" y="300.48400000000004" as="targetPoint" />
          </mxGeometry>
        </mxCell>
        <mxCell id="qCVTfPhcg_SB9y_SXzLi-18" style="edgeStyle=orthogonalEdgeStyle;rounded=0;orthogonalLoop=1;jettySize=auto;html=1;startArrow=none;startFill=0;fillColor=#d5e8d4;gradientColor=#97d077;strokeColor=#82b366;strokeWidth=3;" parent="1" source="qCVTfPhcg_SB9y_SXzLi-5" target="qCVTfPhcg_SB9y_SXzLi-7" edge="1">
          <mxGeometry relative="1" as="geometry">
            <Array as="points">
              <mxPoint x="220" y="320" />
              <mxPoint x="220" y="130" />
              <mxPoint x="438" y="130" />
            </Array>
          </mxGeometry>
        </mxCell>
        <mxCell id="qCVTfPhcg_SB9y_SXzLi-21" style="edgeStyle=orthogonalEdgeStyle;rounded=0;orthogonalLoop=1;jettySize=auto;html=1;fillColor=#d5e8d4;gradientColor=#97d077;strokeColor=#82b366;strokeWidth=3;" parent="1" edge="1">
          <mxGeometry relative="1" as="geometry">
            <mxPoint x="146.5" y="393" as="sourcePoint" />
            <mxPoint x="430" y="130" as="targetPoint" />
            <Array as="points">
              <mxPoint x="147" y="394" />
              <mxPoint x="220" y="394" />
              <mxPoint x="220" y="130" />
            </Array>
          </mxGeometry>
        </mxCell>
        <mxCell id="qCVTfPhcg_SB9y_SXzLi-26" value="MADS" style="sketch=0;outlineConnect=0;fontColor=#232F3E;gradientColor=none;fillColor=#7AA116;strokeColor=none;dashed=0;verticalLabelPosition=bottom;verticalAlign=top;align=center;html=1;fontSize=12;fontStyle=1;aspect=fixed;pointerEvents=1;shape=mxgraph.aws4.iot_analytics_data_store;rounded=0;" parent="1" vertex="1">
          <mxGeometry x="511" y="250" width="54" height="78" as="geometry" />
        </mxCell>
        <mxCell id="jqhNluWvCPyRUkkSe82b-18" style="edgeStyle=orthogonalEdgeStyle;rounded=0;orthogonalLoop=1;jettySize=auto;html=1;entryX=0.5;entryY=0;entryDx=0;entryDy=0;" parent="1" source="jqhNluWvCPyRUkkSe82b-1" target="qCVTfPhcg_SB9y_SXzLi-8" edge="1">
          <mxGeometry relative="1" as="geometry" />
        </mxCell>
        <mxCell id="jqhNluWvCPyRUkkSe82b-1" value="Contracts and Preferences Microservice" style="outlineConnect=0;dashed=0;verticalLabelPosition=bottom;verticalAlign=top;align=center;html=1;shape=mxgraph.aws3.api_gateway;fillColor=#D9A741;gradientColor=none;fontStyle=1;rounded=0;" parent="1" vertex="1">
          <mxGeometry x="950" y="-23" width="76.5" height="93" as="geometry" />
        </mxCell>
        <mxCell id="jqhNluWvCPyRUkkSe82b-6" value="Sync to Salesforce" style="edgeStyle=orthogonalEdgeStyle;rounded=0;orthogonalLoop=1;jettySize=auto;html=1;entryX=0;entryY=0.25;entryDx=0;entryDy=0;" parent="1" source="jqhNluWvCPyRUkkSe82b-2" target="jqhNluWvCPyRUkkSe82b-5" edge="1">
          <mxGeometry relative="1" as="geometry" />
        </mxCell>
        <mxCell id="jqhNluWvCPyRUkkSe82b-2" value="SVoC API" style="outlineConnect=0;dashed=0;verticalLabelPosition=bottom;verticalAlign=top;align=center;html=1;shape=mxgraph.aws3.api_gateway;fillColor=#D9A741;gradientColor=none;fontStyle=1;rounded=0;" parent="1" vertex="1">
          <mxGeometry x="940" y="100.5" width="76.5" height="93" as="geometry" />
        </mxCell>
        <mxCell id="jqhNluWvCPyRUkkSe82b-3" value="Front End API" style="outlineConnect=0;dashed=0;verticalLabelPosition=bottom;verticalAlign=top;align=center;html=1;shape=mxgraph.aws3.api_gateway;fillColor=#D9A741;gradientColor=none;fontStyle=1;rounded=0;" parent="1" vertex="1">
          <mxGeometry x="950" y="267" width="76.5" height="93" as="geometry" />
        </mxCell>
        <mxCell id="jqhNluWvCPyRUkkSe82b-5" value="Salesforce" style="shape=internalStorage;whiteSpace=wrap;html=1;backgroundOutline=1;fillColor=#f8cecc;strokeColor=#b85450;fontStyle=1;rounded=0;" parent="1" vertex="1">
          <mxGeometry x="1180" y="133.5" width="100" height="60" as="geometry" />
        </mxCell>
        <mxCell id="jqhNluWvCPyRUkkSe82b-7" style="edgeStyle=orthogonalEdgeStyle;rounded=0;orthogonalLoop=1;jettySize=auto;html=1;entryX=0;entryY=0.75;entryDx=0;entryDy=0;" parent="1" source="jqhNluWvCPyRUkkSe82b-3" target="jqhNluWvCPyRUkkSe82b-5" edge="1">
          <mxGeometry relative="1" as="geometry">
            <Array as="points">
              <mxPoint x="1100" y="314" />
              <mxPoint x="1100" y="179" />
            </Array>
          </mxGeometry>
        </mxCell>
        <mxCell id="jqhNluWvCPyRUkkSe82b-17" style="edgeStyle=orthogonalEdgeStyle;rounded=0;orthogonalLoop=1;jettySize=auto;html=1;" parent="1" source="jqhNluWvCPyRUkkSe82b-9" target="jqhNluWvCPyRUkkSe82b-1" edge="1">
          <mxGeometry relative="1" as="geometry">
            <Array as="points">
              <mxPoint x="1357" y="20" />
            </Array>
          </mxGeometry>
        </mxCell>
        <mxCell id="jqhNluWvCPyRUkkSe82b-9" value="&lt;b&gt;MCL/MCLAW/GNPM&lt;/b&gt;" style="image;sketch=0;aspect=fixed;html=1;points=[];align=center;fontSize=12;image=img/lib/mscae/Mobile_Engagement.svg;rounded=0;" parent="1" vertex="1">
          <mxGeometry x="1340" y="267" width="34" height="50" as="geometry" />
        </mxCell>
        <mxCell id="jqhNluWvCPyRUkkSe82b-10" value="Notifications" style="shape=internalStorage;whiteSpace=wrap;html=1;backgroundOutline=1;fillColor=#1ba1e2;strokeColor=#006EAF;fontStyle=1;fontColor=#0a0000;rounded=0;" parent="1" vertex="1">
          <mxGeometry x="783.25" y="280" width="116.75" height="47" as="geometry" />
        </mxCell>
        <mxCell id="jqhNluWvCPyRUkkSe82b-16" style="edgeStyle=orthogonalEdgeStyle;rounded=0;orthogonalLoop=1;jettySize=auto;html=1;entryX=0.105;entryY=0.983;entryDx=0;entryDy=0;entryPerimeter=0;" parent="1" edge="1">
          <mxGeometry relative="1" as="geometry">
            <Array as="points">
              <mxPoint x="715" y="194" />
              <mxPoint x="715" y="320" />
            </Array>
            <mxPoint x="690" y="194" as="sourcePoint" />
            <mxPoint x="783.25" y="319.701" as="targetPoint" />
          </mxGeometry>
        </mxCell>
        <mxCell id="HRiIZJCh7KwCgMogS-86-1" value="&lt;div&gt;Registration and Account linking:&lt;/div&gt;&lt;div&gt;IC LifecoCustomer records&lt;/div&gt;" style="text;html=1;strokeColor=none;fillColor=none;align=center;verticalAlign=middle;whiteSpace=wrap;rounded=0;" parent="1" vertex="1">
          <mxGeometry x="883.25" y="380" width="216.75" height="30" as="geometry" />
        </mxCell>
        <mxCell id="HRiIZJCh7KwCgMogS-86-2" style="edgeStyle=orthogonalEdgeStyle;rounded=0;orthogonalLoop=1;jettySize=auto;html=1;entryX=0.117;entryY=1.064;entryDx=0;entryDy=0;entryPerimeter=0;" parent="1" source="jqhNluWvCPyRUkkSe82b-3" target="jqhNluWvCPyRUkkSe82b-9" edge="1">
          <mxGeometry relative="1" as="geometry">
            <Array as="points">
              <mxPoint x="1110" y="320" />
              <mxPoint x="1110" y="320" />
            </Array>
          </mxGeometry>
        </mxCell>
        <mxCell id="HRiIZJCh7KwCgMogS-86-3" value="All party/Contracts including collapse&amp;nbsp;" style="text;html=1;strokeColor=none;fillColor=none;align=center;verticalAlign=middle;whiteSpace=wrap;rounded=0;" parent="1" vertex="1">
          <mxGeometry x="783.25" y="330" width="110" height="30" as="geometry" />
        </mxCell>
        <mxCell id="HRiIZJCh7KwCgMogS-86-4" value="Contact &amp;amp; account Asset, Asset Roles, Contact Address, Assess address, Special Handling, Product Type, Joint Owner Object, Party Collapse, Asset inactive/termination" style="text;html=1;strokeColor=none;fillColor=none;align=center;verticalAlign=middle;whiteSpace=wrap;rounded=0;" parent="1" vertex="1">
          <mxGeometry x="1113" y="220" width="234" height="30" as="geometry" />
        </mxCell>
        <mxCell id="HRiIZJCh7KwCgMogS-86-6" value="Legend" style="text;html=1;strokeColor=none;fillColor=none;align=center;verticalAlign=middle;whiteSpace=wrap;rounded=0;fontStyle=1" parent="1" vertex="1">
          <mxGeometry x="260" y="460" width="60" height="30" as="geometry" />
        </mxCell>
        <mxCell id="HRiIZJCh7KwCgMogS-86-7" value="" style="endArrow=classic;html=1;rounded=0;strokeColor=#de1b1b;strokeWidth=2;" parent="1" edge="1">
          <mxGeometry width="50" height="50" relative="1" as="geometry">
            <mxPoint x="270" y="502" as="sourcePoint" />
            <mxPoint x="340" y="502" as="targetPoint" />
          </mxGeometry>
        </mxCell>
        <mxCell id="HRiIZJCh7KwCgMogS-86-9" value="Integration Point Consumes from Kafka Topic" style="text;html=1;strokeColor=none;fillColor=none;align=center;verticalAlign=middle;whiteSpace=wrap;rounded=0;fontStyle=1" parent="1" vertex="1">
          <mxGeometry x="350" y="484" width="285" height="30" as="geometry" />
        </mxCell>
        <mxCell id="HRiIZJCh7KwCgMogS-86-10" value="" style="endArrow=classic;html=1;rounded=0;strokeColor=#82b366;strokeWidth=2;fillColor=#d5e8d4;" parent="1" edge="1">
          <mxGeometry width="50" height="50" relative="1" as="geometry">
            <mxPoint x="271" y="528" as="sourcePoint" />
            <mxPoint x="341" y="528" as="targetPoint" />
          </mxGeometry>
        </mxCell>
        <mxCell id="HRiIZJCh7KwCgMogS-86-11" value="Integration Point Submits data" style="text;html=1;strokeColor=none;fillColor=none;align=center;verticalAlign=middle;whiteSpace=wrap;rounded=0;fontStyle=1" parent="1" vertex="1">
          <mxGeometry x="306" y="514" width="285" height="30" as="geometry" />
        </mxCell>
        <mxCell id="HRiIZJCh7KwCgMogS-86-12" value="" style="endArrow=classic;html=1;rounded=0;strokeColor=#006EAF;strokeWidth=2;fillColor=#1ba1e2;startArrow=classic;startFill=1;" parent="1" edge="1">
          <mxGeometry width="50" height="50" relative="1" as="geometry">
            <mxPoint x="271" y="555" as="sourcePoint" />
            <mxPoint x="341" y="555" as="targetPoint" />
          </mxGeometry>
        </mxCell>
        <mxCell id="HRiIZJCh7KwCgMogS-86-13" value="Integration Point Submits/Retrieves data to/from Microservice" style="text;html=1;strokeColor=none;fillColor=none;align=center;verticalAlign=middle;whiteSpace=wrap;rounded=0;fontStyle=1" parent="1" vertex="1">
          <mxGeometry x="343" y="544" width="390" height="30" as="geometry" />
        </mxCell>
        <mxCell id="HRiIZJCh7KwCgMogS-86-49" value="MDM Publishes the following system events - Party Contracts, Contact Methods (Phone, email, Address) Consent Preferences, Contract Role, Contract Relationship, Alternate Identifier, Collapse, Undo Collapse" style="text;whiteSpace=wrap;html=1;rounded=0;" parent="1" vertex="1">
          <mxGeometry x="261" y="150" width="140" height="150" as="geometry" />
        </mxCell>
        <mxCell id="-AYBLgOvKdCTAZ4Xlsf5-5" style="edgeStyle=orthogonalEdgeStyle;rounded=0;orthogonalLoop=1;jettySize=auto;html=1;fillColor=#d5e8d4;strokeColor=#82b366;strokeWidth=3;" edge="1" parent="1" source="-AYBLgOvKdCTAZ4Xlsf5-1">
          <mxGeometry relative="1" as="geometry">
            <mxPoint x="430" y="130" as="targetPoint" />
            <Array as="points">
              <mxPoint x="220" y="250" />
              <mxPoint x="220" y="130" />
            </Array>
          </mxGeometry>
        </mxCell>
        <mxCell id="-AYBLgOvKdCTAZ4Xlsf5-1" value="" style="verticalLabelPosition=bottom;sketch=0;aspect=fixed;html=1;verticalAlign=top;strokeColor=none;align=center;outlineConnect=0;shape=mxgraph.citrix.ftp_server;" vertex="1" parent="1">
          <mxGeometry x="105.35" y="210" width="44.65" height="61" as="geometry" />
        </mxCell>
      </root>
    </mxGraphModel>
  </diagram>
</mxfile>
